<svg xmlns="http://www.w3.org/2000/svg" viewBox="0 0 560 430" width="560" height="430" font-family="system-ui, sans-serif">
  <rect width="560" height="430" fill="#fff"/>
  <text x="280" y="22" font-size="14" font-weight="700" text-anchor="middle" fill="#111">Fig. C 5-1 (a) — menor dimensión > 2,4h</text>
  <text x="280" y="40" font-size="11.5" text-anchor="middle" fill="#555">30 × 40 m, h = 10 m · 2,4h = 24 m · aparecen las cuatro zonas, con la 1&#8242; interior</text>
  <clipPath id="c"><rect x="186.25" y="97" width="187.50" height="250.00"/></clipPath>
  <g clip-path="url(#c)">
    <rect x="186.25" y="334.50" width="12.50" height="12.50" fill="#f97316"/>
    <rect x="186.25" y="309.50" width="12.50" height="25.00" fill="#f97316"/>
    <rect x="186.25" y="272.00" width="12.50" height="37.50" fill="#fbbf24"/>
    <rect x="186.25" y="172.00" width="12.50" height="100.00" fill="#fbbf24"/>
    <rect x="186.25" y="134.50" width="12.50" height="37.50" fill="#fbbf24"/>
    <rect x="186.25" y="109.50" width="12.50" height="25.00" fill="#f97316"/>
    <rect x="186.25" y="97.00" width="12.50" height="12.50" fill="#f97316"/>
    <rect x="198.75" y="334.50" width="25.00" height="12.50" fill="#f97316"/>
    <rect x="198.75" y="309.50" width="25.00" height="25.00" fill="#fbbf24"/>
    <rect x="198.75" y="272.00" width="25.00" height="37.50" fill="#fbbf24"/>
    <rect x="198.75" y="172.00" width="25.00" height="100.00" fill="#fbbf24"/>
    <rect x="198.75" y="134.50" width="25.00" height="37.50" fill="#fbbf24"/>
    <rect x="198.75" y="109.50" width="25.00" height="25.00" fill="#fbbf24"/>
    <rect x="198.75" y="97.00" width="25.00" height="12.50" fill="#f97316"/>
    <rect x="223.75" y="334.50" width="37.50" height="12.50" fill="#fbbf24"/>
    <rect x="223.75" y="309.50" width="37.50" height="25.00" fill="#fbbf24"/>
    <rect x="223.75" y="272.00" width="37.50" height="37.50" fill="#bfdbfe"/>
    <rect x="223.75" y="172.00" width="37.50" height="100.00" fill="#bfdbfe"/>
    <rect x="223.75" y="134.50" width="37.50" height="37.50" fill="#bfdbfe"/>
    <rect x="223.75" y="109.50" width="37.50" height="25.00" fill="#fbbf24"/>
    <rect x="223.75" y="97.00" width="37.50" height="12.50" fill="#fbbf24"/>
    <rect x="261.25" y="334.50" width="37.50" height="12.50" fill="#fbbf24"/>
    <rect x="261.25" y="309.50" width="37.50" height="25.00" fill="#fbbf24"/>
    <rect x="261.25" y="272.00" width="37.50" height="37.50" fill="#bfdbfe"/>
    <rect x="261.25" y="172.00" width="37.50" height="100.00" fill="#dbeafe"/>
    <rect x="261.25" y="134.50" width="37.50" height="37.50" fill="#bfdbfe"/>
    <rect x="261.25" y="109.50" width="37.50" height="25.00" fill="#fbbf24"/>
    <rect x="261.25" y="97.00" width="37.50" height="12.50" fill="#fbbf24"/>
    <rect x="298.75" y="334.50" width="37.50" height="12.50" fill="#fbbf24"/>
    <rect x="298.75" y="309.50" width="37.50" height="25.00" fill="#fbbf24"/>
    <rect x="298.75" y="272.00" width="37.50" height="37.50" fill="#bfdbfe"/>
    <rect x="298.75" y="172.00" width="37.50" height="100.00" fill="#bfdbfe"/>
    <rect x="298.75" y="134.50" width="37.50" height="37.50" fill="#bfdbfe"/>
    <rect x="298.75" y="109.50" width="37.50" height="25.00" fill="#fbbf24"/>
    <rect x="298.75" y="97.00" width="37.50" height="12.50" fill="#fbbf24"/>
    <rect x="336.25" y="334.50" width="25.00" height="12.50" fill="#f97316"/>
    <rect x="336.25" y="309.50" width="25.00" height="25.00" fill="#fbbf24"/>
    <rect x="336.25" y="272.00" width="25.00" height="37.50" fill="#fbbf24"/>
    <rect x="336.25" y="172.00" width="25.00" height="100.00" fill="#fbbf24"/>
    <rect x="336.25" y="134.50" width="25.00" height="37.50" fill="#fbbf24"/>
    <rect x="336.25" y="109.50" width="25.00" height="25.00" fill="#fbbf24"/>
    <rect x="336.25" y="97.00" width="25.00" height="12.50" fill="#f97316"/>
    <rect x="361.25" y="334.50" width="12.50" height="12.50" fill="#f97316"/>
    <rect x="361.25" y="309.50" width="12.50" height="25.00" fill="#f97316"/>
    <rect x="361.25" y="272.00" width="12.50" height="37.50" fill="#fbbf24"/>
    <rect x="361.25" y="172.00" width="12.50" height="100.00" fill="#fbbf24"/>
    <rect x="361.25" y="134.50" width="12.50" height="37.50" fill="#fbbf24"/>
    <rect x="361.25" y="109.50" width="12.50" height="25.00" fill="#f97316"/>
    <rect x="361.25" y="97.00" width="12.50" height="12.50" fill="#f97316"/>
  </g>
  <rect x="186.25" y="97" width="187.50" height="250.00" fill="none" stroke="#111" stroke-width="1.6"/>
    <circle cx="280.0" cy="222.0" r="11" fill="#fff" stroke="#111" stroke-width="1.2"/><text x="280.0" y="222.0" font-size="12" font-weight="700" text-anchor="middle" dominant-baseline="central" fill="#111">1&#8242;</text>
    <circle cx="242.5" cy="222.0" r="11" fill="#fff" stroke="#111" stroke-width="1.2"/><text x="242.5" y="222.0" font-size="12" font-weight="700" text-anchor="middle" dominant-baseline="central" fill="#111">1</text>
    <circle cx="211.3" cy="222.0" r="11" fill="#fff" stroke="#111" stroke-width="1.2"/><text x="211.3" y="222.0" font-size="12" font-weight="700" text-anchor="middle" dominant-baseline="central" fill="#111">2</text>
    <circle cx="192.5" cy="322.0" r="11" fill="#fff" stroke="#111" stroke-width="1.2"/><text x="192.5" y="322.0" font-size="12" font-weight="700" text-anchor="middle" dominant-baseline="central" fill="#111">3</text>
  <line x1="186.25" y1="83" x2="373.75" y2="83" stroke="#555" stroke-width="1"/><text x="280" y="77" font-size="11" text-anchor="middle" fill="#555">30 m</text>
  <line x1="186.25" y1="373" x2="373.75" y2="373" stroke="#555" stroke-width="1"/><text x="280" y="367" font-size="11" text-anchor="middle" fill="#555">h = 10 m · zonas 1' · 1 · 2 · 3</text>
</svg>