<svg xmlns="http://www.w3.org/2000/svg" viewBox="0 0 560 430" width="560" height="430" font-family="system-ui, sans-serif">
  <rect width="560" height="430" fill="#fff"/>
  <text x="280" y="22" font-size="14" font-weight="700" text-anchor="middle" fill="#111">Fig. 5.3-2D — dos aguas, 27° < θ ≤ 45°</text>
  <text x="280" y="40" font-size="11.5" text-anchor="middle" fill="#555">40 × 20 m, a = 2 m · zona 3 en las CUATRO ESQUINAS y sin franja de cumbrera</text>
  <clipPath id="c"><rect x="70" y="117" width="420.00" height="210.00"/></clipPath>
  <g clip-path="url(#c)">
    <rect x="70.00" y="306.00" width="21.00" height="21.00" fill="#f97316"/>
    <rect x="70.00" y="138.00" width="21.00" height="168.00" fill="#fbbf24"/>
    <rect x="70.00" y="117.00" width="21.00" height="21.00" fill="#f97316"/>
    <rect x="91.00" y="306.00" width="378.00" height="21.00" fill="#bfdbfe"/>
    <rect x="91.00" y="138.00" width="378.00" height="168.00" fill="#bfdbfe"/>
    <rect x="91.00" y="117.00" width="378.00" height="21.00" fill="#bfdbfe"/>
    <rect x="469.00" y="306.00" width="21.00" height="21.00" fill="#f97316"/>
    <rect x="469.00" y="138.00" width="21.00" height="168.00" fill="#fbbf24"/>
    <rect x="469.00" y="117.00" width="21.00" height="21.00" fill="#f97316"/>
  </g>
  <rect x="70" y="117" width="420.00" height="210.00" fill="none" stroke="#111" stroke-width="1.6"/>
    <circle cx="280.0" cy="222.0" r="11" fill="#fff" stroke="#111" stroke-width="1.2"/><text x="280.0" y="222.0" font-size="12" font-weight="700" text-anchor="middle" dominant-baseline="central" fill="#111">1</text>
    <circle cx="80.5" cy="222.0" r="11" fill="#fff" stroke="#111" stroke-width="1.2"/><text x="80.5" y="222.0" font-size="12" font-weight="700" text-anchor="middle" dominant-baseline="central" fill="#111">2</text>
    <circle cx="80.5" cy="316.5" r="11" fill="#fff" stroke="#111" stroke-width="1.2"/><text x="80.5" y="316.5" font-size="12" font-weight="700" text-anchor="middle" dominant-baseline="central" fill="#111">3</text>
  <line x1="70" y1="103" x2="490" y2="103" stroke="#555" stroke-width="1"/><text x="280" y="97" font-size="11" text-anchor="middle" fill="#555">40 m</text>
  <line x1="70" y1="353" x2="490" y2="353" stroke="#555" stroke-width="1"/><text x="280" y="347" font-size="11" text-anchor="middle" fill="#555">h = 6 m · zonas 1 · 2 · 3</text>
</svg>